<svg width="449" height="404" viewBox="0 0 449 404" fill="none" xmlns="http://www.w3.org/2000/svg"><g clip-path="url(#clip0_246_2)"><path d="M441 197.859C441 267.447 345.413 323.859 227.5 323.859C109.587 323.859 14 267.447 14 197.859C14 128.272 109.587 71.8595 227.5 71.8595C345.413 71.8595 441 128.272 441 197.859Z" fill="white" fill-opacity="0.6"/><path fill-rule="evenodd" clip-rule="evenodd" d="M321.642 232.371C316.288 235.419 310.645 238.487 304.764 241.426C308.662 244.506 312.566 247.643 315.626 250.21C324.884 257.973 331.364 271.381 299.272 272.793C279.789 273.65 263.338 266.071 253.481 259.35C246.836 260.502 240.09 261.147 233.289 261.147C200.935 261.147 167.75 257.985 154.062 223.2C140.736 189.336 169.825 156.16 205.083 144.144C240.341 132.127 264.814 129.913 284.31 136.87C299.906 142.436 306.018 152.998 307.539 158.374C368.514 183.039 352.752 214.662 321.642 232.371ZM139.782 215.119C140.703 207.706 134.152 204.599 125.628 201.524C117.104 198.448 106.878 197.323 104.648 207.753C102.418 218.182 112.059 224.573 121.68 225.768C131.301 226.964 138.861 222.531 139.782 215.119Z" fill="#3C5048"/><path d="M194.138 115.99C157.539 84.0677 144.729 112.737 161.199 140.186L194.138 115.99Z" fill="#58CC02"/><path fill-rule="evenodd" clip-rule="evenodd" d="M173.221 131.355C173.313 129.81 172.971 128.427 172 127.359C167.049 121.913 157.194 110.582 161.373 103.079C151.953 107.515 151.524 124.061 161.199 140.186L173.221 131.355Z" fill="url(#paint0_linear_246_2)"/><path fill-rule="evenodd" clip-rule="evenodd" d="M299.59 216.447C301.021 215.41 302.431 214.371 303.82 213.333C332.32 192.054 346.76 154.054 290.9 124.415C289.507 117.955 283.909 105.263 269.621 98.5753C251.761 90.2154 229.341 92.8754 197.042 107.315C164.742 121.755 138.095 161.621 150.303 202.314C162.842 244.113 193.242 247.913 222.882 247.913C234.098 247.913 245.151 245.399 255.794 241.351C264.737 249.569 280.115 259.168 298.413 258.112C327.812 256.416 321.876 240.303 313.396 230.975C309.573 226.77 304.313 221.29 299.59 216.447Z" fill="#58CC02"/><path d="M276.142 187.469C281.777 182.269 286.522 177.893 287.893 176.636C291.877 172.984 292.958 169.305 292.958 169.305C292.958 169.305 310.653 167.85 303.089 161.307C299.492 158.196 296.238 155.422 294.77 154.174C294.424 153.879 294.547 153.313 294.984 153.186C298.664 152.115 310.474 148.254 302.603 144.82C298.743 143.135 264.7 127.184 259.634 120.919C254.569 114.654 258.065 101.301 266.632 99.0468C267.583 98.7965 268.283 98.5051 268.76 98.1825C251.041 90.3036 228.825 93.1064 197.042 107.315C196.24 107.674 195.441 108.048 194.646 108.438C188.735 113.583 188.533 123.296 195.211 128.613C200.351 132.705 206.96 134.481 213.459 133.517L214.836 133.313L227.036 142.585L223.542 155.761C220.887 165.773 223.261 176.465 229.893 184.421C241.6 198.467 262.705 199.868 276.142 187.469Z" fill="#89E219"/><path fill-rule="evenodd" clip-rule="evenodd" d="M197.109 116.913C198.034 116.835 198.848 117.522 198.926 118.447C199.206 121.753 201.12 124.103 203.749 125.448C206.422 126.815 209.767 127.094 212.625 126.19C213.51 125.909 214.455 126.4 214.736 127.286C215.016 128.171 214.526 129.116 213.641 129.396C209.939 130.568 205.679 130.212 202.218 128.442C198.714 126.649 195.967 123.36 195.575 118.73C195.497 117.804 196.183 116.991 197.109 116.913Z" fill="url(#paint1_radial_246_2)" fill-opacity="0.7"/><path d="M245.159 117.104C235.107 118.836 223.757 122.571 213.079 124.294C207.404 125.209 200.419 123.494 199.391 117.838C198.705 114.062 200.788 110.205 206.948 106.977C215.5 102.496 228.996 95.9109 242.216 97.6279C255.436 99.3449 253.959 115.588 245.159 117.104Z" fill="url(#paint2_linear_246_2)"/><path d="M242.981 115.646C233.935 117.324 222.728 123.249 212.49 126.136C206.697 127.77 199.656 125.57 198.987 119.587C198.478 115.047 200.65 110.226 206.496 106.96C214.55 102.459 228.28 96.8906 240.71 98.577C253.141 100.263 251.262 114.109 242.981 115.646Z" fill="white"/><path d="M241.64 178.935L240.406 177.613C229.734 166.182 233.349 147.662 247.535 141.081L256.448 136.947C265.503 132.746 276.237 134.907 282.962 142.286C292.043 152.251 290.571 167.871 279.788 175.964L272.236 181.633C262.845 188.681 249.652 187.518 241.64 178.935Z" fill="url(#paint3_linear_246_2)"/><path d="M276.647 174.39L268.814 180.347C259.889 187.134 247.282 186.101 239.581 177.95C229.321 167.091 232.676 149.376 246.198 143.021L255.103 138.836C263.334 134.967 273.122 136.865 279.311 143.53C287.717 152.583 286.48 166.912 276.647 174.39Z" fill="white"/><path d="M276.892 176.721L270.628 181.485C261.271 188.6 248.042 187.457 240.044 178.842C229.516 167.5 233.067 149.192 247.073 142.61L254.195 139.262C262.948 135.149 273.36 137.227 279.862 144.385C288.549 153.948 287.176 168.9 276.892 176.721Z" fill="white"/><path fill-rule="evenodd" clip-rule="evenodd" d="M248.241 139.268C248.75 140.397 248.248 141.725 247.12 142.234C232.463 148.848 228.918 167.168 239.951 178.381C240.82 179.263 240.808 180.683 239.926 181.551C239.043 182.42 237.623 182.409 236.755 181.526C223.459 168.014 227.87 146.001 245.275 138.147C246.404 137.637 247.732 138.139 248.241 139.268Z" fill="url(#paint4_radial_246_2)" fill-opacity="0.5"/><path d="M201.648 168.059L193.807 158.776C192.346 157.046 189.77 156.753 188.769 158.784C187.406 161.548 186.966 165.557 189.627 169.331C192.418 173.289 197.425 173.845 200.853 172.934C203.066 172.347 203.125 169.808 201.648 168.059Z" fill="#89E219"/><path d="M179.589 165.889L172.708 157.457C171.108 155.497 168.257 155.447 167.647 157.903C166.975 160.609 167.137 164.139 169.368 167.377C172.016 171.219 176.326 171.516 179.136 170.422C180.997 169.698 180.852 167.436 179.589 165.889Z" fill="#89E219"/><path d="M185.63 147.749L177.121 138.238C176.341 137.366 174.996 137.242 174.349 138.217C172.648 140.782 172.071 144.993 174.457 148.222C177.677 152.58 182.683 152.414 185.47 150.798C186.575 150.157 186.482 148.702 185.63 147.749Z" fill="#89E219"/><path d="M255.579 146.629C256.424 144.375 258.898 143.191 261.183 143.945L265.707 145.438C268.126 146.236 269.396 148.887 268.501 151.272L264.775 161.205L261.175 171.665C260.344 174.082 257.663 175.316 255.286 174.376L250.243 172.383C247.913 171.461 246.79 168.81 247.749 166.495L251.727 156.899L255.579 146.629Z" fill="#4B4B4B"/><path d="M222.934 102.754C224.117 101.257 225.929 100.421 227.836 100.495L230.422 100.595C231.717 100.645 232.492 102.114 231.806 103.218L227.605 109.98L223.804 118.201C223.318 119.252 222.239 119.876 221.091 119.77L216.868 119.38C214.832 119.192 213.641 116.913 214.644 115.125L215.342 113.88C217.292 110.404 219.508 107.093 221.969 103.977L222.934 102.754Z" fill="#4B4B4B"/><path d="M233.451 104.71C235.149 104.776 236.386 106.328 236.075 108.004L235.494 111.126C235.243 112.477 234.053 113.456 232.682 113.438L212.427 113.177C210.782 113.156 209.734 111.428 210.468 109.949L211.008 108.86C212.494 105.866 215.597 104.019 218.922 104.147L233.451 104.71Z" fill="#4B4B4B"/><path d="M246.292 160.519C244.121 159.531 243.103 157.016 243.975 154.796L245.411 151.142C246.305 148.868 248.855 147.728 251.146 148.578L261.343 152.364L272.065 156.562C274.416 157.482 275.544 160.162 274.559 162.487L272.638 167.02C271.68 169.282 269.079 170.351 266.806 169.418L257.082 165.427L246.292 160.519Z" fill="#4B4B4B"/><g filter="url(#filter0_i_246_2)"><path d="M130.488 191.488C136.63 198.15 141.007 203.931 136.768 210.081C132.53 216.231 123.776 216.674 115.794 211.172C107.811 205.67 102.209 195.552 109.001 187.329C115.794 179.106 124.346 184.825 130.488 191.488Z" fill="#F49000"/></g><path d="M225.5 153.859L237 133.859L225 134.359L219 142.359L220 151.359L225.5 153.859Z" fill="#399A52"/><mask id="mask0_246_2" style="mask-type:alpha" maskUnits="userSpaceOnUse" x="205" y="135" width="21" height="35"><path d="M217.45 136.66C216.133 134.391 207.456 134.023 206.212 140.171C207.017 141.895 208.763 142.594 206.889 148.039C204.547 154.845 204.406 163.949 211.374 168.182C218.464 172.488 227.649 165.366 224.502 156.291C221.355 147.216 225.295 150.767 225.076 143.228C224.9 137.198 219.865 136.22 217.45 136.66Z" fill="#399A52"/></mask><g mask="url(#mask0_246_2)"><path d="M218.45 136.66C217.133 134.391 208.456 134.023 207.212 140.171C208.017 141.895 209.763 142.594 207.889 148.039C205.547 154.845 205.406 163.949 212.374 168.182C219.464 172.488 228.649 165.366 225.502 156.291C222.355 147.216 226.295 150.767 226.076 143.228C225.9 137.198 220.865 136.22 218.45 136.66Z" fill="#399A52"/></g><g filter="url(#filter1_i_246_2)"><path d="M235.903 135.553C240.324 128.66 238.301 114.35 228.861 110.904L221.117 124.756C218.619 124.956 216.409 125.019 210.356 126.937C202.789 129.334 199.717 146.491 214.851 146.191C229.985 145.891 231.483 142.445 235.903 135.553Z" fill="#FFC200"/></g><path fill-rule="evenodd" clip-rule="evenodd" d="M223.854 119.859L221.117 124.756C220.945 124.77 220.775 124.783 220.605 124.796C218.298 124.973 215.994 125.15 210.356 126.937C202.789 129.334 199.717 146.491 214.851 146.191C220.528 146.079 224.286 145.524 227 144.51V119.859H223.854Z" fill="#C67603"/><path d="M207.635 134.649C204.827 127.666 215.553 126.191 221.672 124.841C223.255 117.57 227.101 112.544 228.78 111.974C234.035 121.26 231.39 134.649 227.97 140.047C220.952 140.947 211.144 143.377 207.635 134.649Z" fill="#74410E"/><path fill-rule="evenodd" clip-rule="evenodd" d="M222.851 124.581C222.994 125.232 222.583 125.876 221.932 126.02C221.342 126.15 220.724 126.279 220.089 126.411C217.307 126.992 214.202 127.639 211.806 128.731C210.344 129.397 209.331 130.153 208.81 130.996C208.337 131.759 208.172 132.749 208.755 134.198C209.546 136.167 210.664 137.448 211.962 138.288C213.275 139.138 214.846 139.584 216.605 139.757C219.465 140.039 222.577 139.592 225.564 139.162C226.325 139.053 227.078 138.945 227.817 138.85C228.478 138.765 229.083 139.233 229.168 139.894C229.252 140.555 228.785 141.16 228.124 141.245C227.469 141.329 226.776 141.429 226.054 141.533C223.047 141.968 219.551 142.473 216.368 142.16C214.359 141.962 212.382 141.436 210.65 140.314C208.902 139.183 207.478 137.494 206.515 135.099C205.694 133.057 205.817 131.244 206.757 129.725C207.648 128.285 209.172 127.278 210.805 126.534C213.474 125.318 216.929 124.6 219.712 124.022C220.315 123.897 220.886 123.778 221.412 123.662C222.063 123.518 222.707 123.93 222.851 124.581Z" fill="#FCC100"/><path fill-rule="evenodd" clip-rule="evenodd" d="M228.392 110.831C228.941 110.644 229.545 110.875 229.831 111.379C232.617 116.303 233.275 122.239 232.831 127.569C232.388 132.887 230.831 137.787 228.99 140.693C228.633 141.257 227.888 141.424 227.324 141.067C226.761 140.711 226.594 139.965 226.951 139.402C228.529 136.91 230.004 132.415 230.425 127.368C230.808 122.776 230.304 117.88 228.341 113.745C228.255 113.829 228.163 113.922 228.066 114.026C227.511 114.62 226.871 115.461 226.22 116.525C224.918 118.651 223.613 121.6 222.851 125.098C222.709 125.749 222.066 126.162 221.415 126.02C220.763 125.878 220.35 125.235 220.492 124.584C221.314 120.811 222.724 117.611 224.16 115.264C224.878 114.092 225.614 113.114 226.302 112.378C226.953 111.681 227.677 111.073 228.392 110.831Z" fill="#BEA700"/><mask id="mask1_246_2" style="mask-type:alpha" maskUnits="userSpaceOnUse" x="208" y="130" width="21" height="35"><path d="M220.45 131.66C219.133 129.391 210.456 129.023 209.212 135.171C210.017 136.895 211.763 137.594 209.889 143.039C207.547 149.845 207.406 158.949 214.374 163.182C221.464 167.488 230.649 160.366 227.502 151.291C224.355 142.216 228.295 145.767 228.076 138.228C227.9 132.198 222.865 131.22 220.45 131.66Z" fill="url(#paint5_linear_246_2)"/></mask><g mask="url(#mask1_246_2)"><path d="M220.45 131.66C219.133 129.391 210.456 129.023 209.212 135.171C210.017 136.895 211.763 137.594 209.889 143.039C207.547 149.845 207.406 158.949 214.374 163.182C221.464 167.488 230.649 160.366 227.502 151.291C224.355 142.216 228.295 145.767 228.076 138.228C227.9 132.198 222.865 131.22 220.45 131.66Z" fill="url(#paint6_linear_246_2)"/><g filter="url(#filter2_f_246_2)"><path fill-rule="evenodd" clip-rule="evenodd" d="M207.205 131.056C207.995 129.981 209.506 129.75 210.58 130.54C212.573 132.003 214.502 133.625 215.143 136.296C215.744 138.802 215.082 141.735 213.749 145.492C211.911 150.671 212.843 155.106 214.789 157.501C215.746 158.679 216.943 159.379 218.267 159.571C219.595 159.764 221.283 159.479 223.257 158.262C224.392 157.562 225.879 157.914 226.579 159.049C227.279 160.184 226.927 161.672 225.792 162.372C223.039 164.07 220.22 164.734 217.573 164.35C214.923 163.964 212.678 162.56 211.042 160.546C207.8 156.558 206.933 150.261 209.198 143.877C210.53 140.125 210.685 138.412 210.447 137.422C210.25 136.598 209.686 135.874 207.722 134.431C206.647 133.641 206.416 132.13 207.205 131.056Z" fill="url(#paint7_linear_246_2)"/></g></g><path fill-rule="evenodd" clip-rule="evenodd" d="M303.82 213.333C302.291 214.475 300.736 215.62 299.157 216.761C294.034 214.634 285.441 221.931 277.763 228.449C275.113 230.7 272.572 232.858 270.32 234.503C276.207 240.543 290.672 247.089 310 243.359C319.245 241.57 316.465 234.852 311.896 229.339C312.416 229.902 312.917 230.448 313.396 230.975C321.876 240.303 327.812 256.416 298.413 258.112C280.574 259.141 265.51 250.044 256.479 241.971C245.813 246.655 236.982 247.913 222.882 247.913C193.242 247.913 162.842 244.113 150.303 202.314C146.403 189.314 146.468 176.398 149.417 164.369C151.417 164.415 152.556 168.677 153.645 172.754C154.372 175.474 155.076 178.112 156 179.359C170.285 198.654 205.54 229.806 244.086 211.469C253.767 206.863 262.584 202.981 270.478 199.505C304.899 184.347 321.765 170.92 316.184 144.98C315.974 144.002 315.781 143.055 315.606 142.138C340.731 167.96 326.876 196.118 303.82 213.333ZM307 224.359L307.341 224.487C307.771 224.939 308.196 225.387 308.616 225.831C308.065 225.304 307.522 224.811 307 224.359Z" fill="url(#paint8_linear_246_2)"/><g filter="url(#filter3_i_246_2)"><path d="M188.761 231.263C179.429 241.665 173.962 241.898 168.265 238.523C162.568 235.147 161.828 227.085 165.852 215.974C169.877 204.863 182.082 202.894 188.761 207.275C195.44 211.656 198.094 220.86 188.761 231.263Z" fill="#F49000"/></g><g clip-path="url(#clip1_246_2)"><path fill-rule="evenodd" clip-rule="evenodd" d="M19.0524 169.856L0 212.119H15.141C27.1463 274.996 117.402 323.86 226.962 323.86C336.521 323.86 426.777 274.996 438.782 212.119H449L439.438 187.536C437.739 175.1 432.986 163.175 425.624 152.022L241.033 -322.546L23.1574 160.75C21.6035 163.74 20.2326 166.777 19.0524 169.856Z" fill="url(#paint9_linear_246_2)" fill-opacity="0.3"/><path d="M260.267 33.5C260.267 29.863 263.006 27.2997 266.634 27.2997C270.262 27.2997 273 29.863 273 33.5C273 37.137 270.262 39.7003 266.634 39.7003C263.006 39.7003 260.267 37.1024 260.267 33.5ZM269.406 33.5C269.406 31.8027 268.345 30.5557 266.668 30.5557C264.991 30.5557 263.93 31.8027 263.93 33.5C263.93 35.1973 264.991 36.4443 266.668 36.4443C268.345 36.4443 269.406 35.2319 269.406 33.5ZM257.872 30.625C258.111 31.1099 258.214 31.6295 258.214 32.1837C258.214 33.5 257.529 34.7123 256.434 35.6476C257.94 36.375 258.83 38.1416 258.83 39.8042C258.83 42.9217 256.331 45 252.532 45C248.733 45 246.234 42.9563 246.234 39.8042C246.2 38.0723 247.124 36.4789 248.63 35.6476C247.501 34.7123 246.85 33.5 246.85 32.1837C246.85 29.4473 248.972 27.4383 252.327 27.4383C254.312 27.4383 254.894 27.7846 256.023 27.7846C256.776 27.8193 257.564 27.6114 258.214 27.1958C258.453 27.0572 258.693 26.9533 258.967 26.9533C259.412 26.9533 259.651 27.4036 259.651 27.9578C259.754 29.1702 259.001 30.244 257.872 30.625ZM255.305 39.7003C255.305 38.3148 254.243 37.3449 252.566 37.3449C250.889 37.3449 249.828 38.2801 249.828 39.7003C249.828 41.0166 250.992 42.0557 252.566 42.0557C254.141 42.0557 255.305 41.0166 255.305 39.7003ZM250.342 32.3916C250.376 33.6039 251.403 34.5738 252.635 34.5392C253.799 34.5045 254.688 33.5693 254.757 32.3916C254.757 31.1446 253.867 30.2786 252.566 30.2786C251.266 30.2786 250.342 31.1099 250.342 32.3916ZM244.591 33.7425V38.0723C244.591 38.9036 244.283 39.25 243.393 39.25H242.195C241.306 39.25 240.998 38.9036 240.998 38.0723V33.8464C240.998 32.7726 240.826 32.0105 240.45 31.5256C240.005 30.9714 239.32 30.6943 238.636 30.7289C237.917 30.6943 237.233 31.006 236.753 31.5256C236.343 32.0105 236.069 32.7726 236.069 33.8117V38.0377C236.069 38.9036 235.692 39.2154 234.871 39.2154H233.673C232.851 39.2154 232.475 38.9036 232.475 38.0377V28.3389C232.475 27.7846 232.749 27.5422 233.159 27.5422C233.776 27.5422 234.631 28.0617 235.282 29.0663C236.274 27.9578 237.677 27.3343 239.149 27.3343C240.895 27.3343 242.298 27.9578 243.222 28.997C244.146 30.0361 244.591 31.4563 244.591 33.7425ZM225.903 23.9744C225.903 22.866 226.827 22 227.888 22C227.923 22 227.923 22 227.957 22C229.018 22.0693 229.839 23.0045 229.771 24.0783C229.703 25.1521 228.778 25.9834 227.717 25.9142C226.691 25.8795 225.903 25.0136 225.903 23.9744ZM226.143 38.0723V28.9623C226.143 28.131 226.451 27.75 227.341 27.75H228.539C229.429 27.75 229.737 28.0964 229.737 28.9623V38.0723C229.737 38.9036 229.429 39.25 228.539 39.25H227.341C226.451 39.25 226.143 38.9036 226.143 38.0723ZM219.811 38.0723V26.6416C219.811 23.7666 221.385 22.1386 222.72 22.1386C223.131 22.1386 223.405 22.4157 223.405 22.9352V38.0723C223.405 38.9383 223.062 39.25 222.207 39.25H221.009C220.187 39.25 219.811 38.9383 219.811 38.0723ZM205.025 33.5C205.025 29.863 207.763 27.2997 211.391 27.2997C215.019 27.2997 217.757 29.863 217.757 33.5C217.757 37.137 215.019 39.7003 211.391 39.7003C207.763 39.7003 205.025 37.1024 205.025 33.5ZM214.129 33.5C214.129 31.8027 213.068 30.5557 211.391 30.5557C209.714 30.5557 208.653 31.8027 208.653 33.5C208.653 35.1973 209.714 36.4443 211.391 36.4443C213.068 36.4443 214.129 35.2319 214.129 33.5ZM203.176 28.9623V38.6611C203.176 39.2154 202.903 39.4578 202.492 39.4578C201.876 39.4578 201.02 38.9383 200.404 37.9684C199.446 39.0768 198.077 39.7003 196.605 39.6657C195.236 39.7003 193.935 39.2154 192.908 38.2801C191.847 37.241 191.265 35.6476 191.265 33.3614V28.9623C191.265 28.131 191.573 27.75 192.463 27.75H193.661C194.551 27.75 194.859 28.0964 194.859 28.9623V33.0497C194.859 34.4352 195.099 35.1627 195.544 35.6476C195.954 36.0633 196.571 36.3057 197.152 36.2711C197.803 36.2711 198.419 36.0286 198.864 35.5437C199.309 35.0587 199.548 34.2967 199.548 33.119V28.9623C199.548 28.0964 199.925 27.75 200.746 27.75H201.944C202.8 27.75 203.176 28.0964 203.176 28.9623ZM188.801 22.9352V38.6611C188.801 39.2154 188.527 39.4578 188.116 39.4578C187.5 39.4578 186.645 38.9383 186.029 38.003C185.276 38.9036 183.735 39.7003 181.956 39.7003C178.396 39.7003 176 37.0678 176 33.5C176 29.9322 178.464 27.2997 181.956 27.2997C183.119 27.2997 184.249 27.6461 185.241 28.3042V26.6416C185.241 23.7666 186.85 22.1386 188.151 22.1386C188.561 22.1386 188.801 22.4157 188.801 22.9352ZM185.241 33.5C185.241 31.7334 184.009 30.5557 182.469 30.5557C180.929 30.5557 179.662 31.7334 179.662 33.5C179.662 35.2666 180.894 36.4443 182.469 36.4443C184.043 36.4443 185.241 35.3012 185.241 33.5Z" fill="white"/></g></g><defs><filter id="filter0_i_246_2" x="105.959" y="179.898" width="32.4941" height="35.1171" filterUnits="userSpaceOnUse" color-interpolation-filters="sRGB"><feFlood flood-opacity="0" result="BackgroundImageFix"/><feBlend mode="normal" in="SourceGraphic" in2="BackgroundImageFix" result="shape"/><feColorMatrix in="SourceAlpha" type="matrix" values="0 0 0 0 0 0 0 0 0 0 0 0 0 0 0 0 0 0 127 0" result="hardAlpha"/><feOffset dy="-3.36334"/><feGaussianBlur stdDeviation="3.9239"/><feComposite in2="hardAlpha" operator="arithmetic" k2="-1" k3="1"/><feColorMatrix type="matrix" values="0 0 0 0 0.394427 0 0 0 0 0.405225 0 0 0 0 0.243253 0 0 0 1 0"/><feBlend mode="normal" in2="shape" result="effect1_innerShadow_246_2"/></filter><filter id="filter1_i_246_2" x="204.082" y="108.49" width="34.8624" height="37.7054" filterUnits="userSpaceOnUse" color-interpolation-filters="sRGB"><feFlood flood-opacity="0" result="BackgroundImageFix"/><feBlend mode="normal" in="SourceGraphic" in2="BackgroundImageFix" result="shape"/><feColorMatrix in="SourceAlpha" type="matrix" values="0 0 0 0 0 0 0 0 0 0 0 0 0 0 0 0 0 0 127 0" result="hardAlpha"/><feOffset dx="0.804768" dy="-2.4143"/><feGaussianBlur stdDeviation="2.81669"/><feComposite in2="hardAlpha" operator="arithmetic" k2="-1" k3="1"/><feColorMatrix type="matrix" values="0 0 0 0 0.352941 0 0 0 0 0.458824 0 0 0 0 0 0 0 0 1 0"/><feBlend mode="normal" in2="shape" result="effect1_innerShadow_246_2"/></filter><filter id="filter2_f_246_2" x="205.932" y="129.266" width="21.8122" height="35.9942" filterUnits="userSpaceOnUse" color-interpolation-filters="sRGB"><feFlood flood-opacity="0" result="BackgroundImageFix"/><feBlend mode="normal" in="SourceGraphic" in2="BackgroundImageFix" result="shape"/><feGaussianBlur stdDeviation="0.402384" result="effect1_foregroundBlur_246_2"/></filter><filter id="filter3_i_246_2" x="163.317" y="201.748" width="31.489" height="38.7118" filterUnits="userSpaceOnUse" color-interpolation-filters="sRGB"><feFlood flood-opacity="0" result="BackgroundImageFix"/><feBlend mode="normal" in="SourceGraphic" in2="BackgroundImageFix" result="shape"/><feColorMatrix in="SourceAlpha" type="matrix" values="0 0 0 0 0 0 0 0 0 0 0 0 0 0 0 0 0 0 127 0" result="hardAlpha"/><feOffset dy="-3.36334"/><feGaussianBlur stdDeviation="3.9239"/><feComposite in2="hardAlpha" operator="arithmetic" k2="-1" k3="1"/><feColorMatrix type="matrix" values="0 0 0 0 0.394427 0 0 0 0 0.405225 0 0 0 0 0.243253 0 0 0 1 0"/><feBlend mode="normal" in2="shape" result="effect1_innerShadow_246_2"/></filter><linearGradient id="paint0_linear_246_2" x1="151.5" y1="126.859" x2="168.777" y2="119.747" gradientUnits="userSpaceOnUse"><stop stop-color="#495C55"/><stop offset="1" stop-color="#58CC02"/></linearGradient><radialGradient id="paint1_radial_246_2" cx="0" cy="0" r="1" gradientUnits="userSpaceOnUse" gradientTransform="translate(203.19 129.789) rotate(-65.9765) scale(11.5396 10.3139)"><stop stop-color="#399205"/><stop offset="1" stop-color="#89E219"/></radialGradient><linearGradient id="paint2_linear_246_2" x1="283.018" y1="115.894" x2="249.045" y2="139.936" gradientUnits="userSpaceOnUse"><stop offset="0.0403394" stop-color="#89E219"/><stop offset="0.240297" stop-color="#38B005"/><stop offset="0.872098" stop-color="#89E219"/></linearGradient><linearGradient id="paint3_linear_246_2" x1="332.479" y1="145.344" x2="260.716" y2="202.321" gradientUnits="userSpaceOnUse"><stop offset="0.0403394" stop-color="#89E219"/><stop offset="0.365757" stop-color="#38B005"/><stop offset="0.561765" stop-color="#89E219"/></linearGradient><radialGradient id="paint4_radial_246_2" cx="0" cy="0" r="1" gradientUnits="userSpaceOnUse" gradientTransform="translate(233.004 160.072) rotate(20.9384) scale(11.2072 18.3348)"><stop stop-color="#399205"/><stop offset="1" stop-color="#89E219"/></radialGradient><linearGradient id="paint5_linear_246_2" x1="224.023" y1="129.044" x2="217.658" y2="175.752" gradientUnits="userSpaceOnUse"><stop stop-color="#FF9DEA"/><stop offset="0.358822" stop-color="#B977A4"/><stop offset="0.685357" stop-color="#FF9EEB"/><stop offset="1" stop-color="#995E8C"/></linearGradient><linearGradient id="paint6_linear_246_2" x1="224.023" y1="129.044" x2="217.658" y2="175.752" gradientUnits="userSpaceOnUse"><stop stop-color="#FF9DEA"/><stop offset="0.665554" stop-color="#FF9EEB"/><stop offset="1" stop-color="#995E8C"/></linearGradient><linearGradient id="paint7_linear_246_2" x1="222.051" y1="150.951" x2="206.059" y2="155.634" gradientUnits="userSpaceOnUse"><stop stop-color="#ED94D9"/><stop offset="1" stop-color="#87547C"/></linearGradient><linearGradient id="paint8_linear_246_2" x1="238" y1="270.859" x2="247" y2="162.859" gradientUnits="userSpaceOnUse"><stop stop-color="#4B5D56"/><stop offset="1" stop-color="#58CC02"/></linearGradient><linearGradient id="paint9_linear_246_2" x1="224.5" y1="-90.1405" x2="224.5" y2="323.86" gradientUnits="userSpaceOnUse"><stop stop-color="#ECF4FF"/><stop offset="1" stop-color="white" stop-opacity="0"/></linearGradient><clipPath id="clip0_246_2"><rect width="449" height="404" fill="white"/></clipPath><clipPath id="clip1_246_2"><rect width="427" height="647" fill="white" transform="translate(14 -323)"/></clipPath></defs></svg>