<svg width="200" height="200" viewBox="0 0 200 200" fill="none" xmlns="http://www.w3.org/2000/svg"><path opacity="0.3" d="M28.0596 139.635H171.94C174.473 139.635 176.5 141.677 176.5 144.228C176.5 146.78 174.473 148.821 171.94 148.821H28.0596C25.5265 148.821 23.5 146.78 23.5 144.228C23.5 141.677 25.5265 139.635 28.0596 139.635Z" fill="#AFAFAF"/><path d="M93.0339 95.6211L93.6672 94.6005C94.6805 92.942 96.8336 92.3041 98.6068 93.0695L99.62 93.5799C101.013 94.2177 101.9 95.3659 102.406 96.7693L104.94 104.934C105.826 107.613 104.306 110.548 101.52 111.441C98.8601 112.334 95.947 110.675 95.0604 107.996L92.5273 99.8311C92.1474 98.4278 92.274 96.8969 93.0339 95.6211Z" fill="#FFC200"/><path d="M99.4933 93.7075C102.28 93.7075 104.686 96.0038 104.686 98.9381V109.272C104.686 112.079 102.406 114.503 99.4933 114.503C96.7069 114.503 94.3005 112.206 94.3005 109.272V98.9381C94.3005 96.0038 96.5803 93.7075 99.4933 93.7075Z" fill="#F49000"/><path d="M119.378 125.857H131.157C131.664 125.857 132.171 125.857 132.551 125.985L163.328 132.746C165.228 133.129 166.368 135.042 165.988 136.829C165.608 138.487 164.214 139.635 162.568 139.635H119.125C115.325 139.635 112.286 136.573 112.286 132.746C112.539 128.919 115.705 125.857 119.378 125.857Z" fill="#58CC02"/><path d="M79.4818 125.857H67.7028C67.1962 125.857 66.6896 125.857 66.3096 125.985L35.5323 132.746C33.6324 133.129 32.4925 135.042 32.8725 136.829C33.2525 138.487 34.6457 139.635 36.2922 139.635H79.7351C83.5348 139.635 86.5745 136.573 86.5745 132.746C86.3212 128.919 83.2815 125.857 79.4818 125.857Z" fill="#58CC02"/><path d="M99.4934 98.3002C119.378 98.3002 135.464 114.503 135.464 134.532V139.635H63.5232V134.532C63.5232 114.503 79.6085 98.3002 99.4934 98.3002Z" fill="#58CC02"/><path d="M97.4669 110.42C97.4669 110.292 97.4669 110.037 97.3402 109.91C97.2136 109.782 97.0869 109.655 96.8336 109.655H86.1945C86.0679 109.655 85.8146 109.782 85.6879 109.91C85.5613 110.037 85.5613 110.292 85.5613 110.42C86.3212 113.227 88.7276 115.14 91.3874 115.14C94.0472 115.14 96.707 113.227 97.4669 110.42ZM105.32 118.202H94.6805C94.5538 118.202 94.3005 118.33 94.1738 118.457C94.0472 118.585 94.0472 118.84 94.0472 118.968C94.8071 121.774 97.2136 123.688 99.8733 123.688C102.66 123.688 105.066 121.774 105.7 118.968C105.7 118.84 105.7 118.585 105.573 118.457C105.446 118.33 105.446 118.202 105.32 118.202ZM114.312 109.91C114.185 109.782 114.059 109.655 113.805 109.655H103.166C103.04 109.655 102.786 109.782 102.66 109.91C102.533 110.037 102.533 110.292 102.533 110.42C103.293 113.227 105.7 115.14 108.359 115.14C111.146 115.14 113.552 113.227 114.185 110.42C114.439 110.292 114.312 110.037 114.312 109.91Z" fill="#89E219"/><path d="M64.6631 131.598H76.0621C79.8618 131.598 82.9015 134.66 82.9015 138.487C82.9015 142.314 79.8618 145.376 76.0621 145.376H64.6631C60.8634 145.376 57.8237 142.314 57.8237 138.487C57.8237 134.66 60.8634 131.598 64.6631 131.598Z" fill="#F49000"/><path d="M121.658 131.598H133.057C136.857 131.598 139.897 134.66 139.897 138.487C139.897 142.314 136.857 145.376 133.057 145.376H121.658C117.858 145.376 114.819 142.314 114.819 138.487C114.819 134.66 117.985 131.598 121.658 131.598Z" fill="#F49000"/><path d="M80.2417 103.914C84.4214 101.235 89.1076 99.4484 94.3005 98.683C92.5273 101.872 89.2343 104.041 85.308 104.041H81.7616C81.255 104.041 80.7484 104.041 80.2417 103.914Z" fill="#89E219"/><path d="M104.686 98.683C109.753 99.4484 114.565 101.235 118.745 103.914C118.238 104.041 117.732 104.041 117.225 104.041H113.805C109.879 104.041 106.459 101.872 104.686 98.683Z" fill="#89E219"/><path opacity="0.3" d="M49.7177 72.1469C51.8709 72.1469 53.1374 73.5502 53.1374 75.4639C53.1374 77.3776 51.7442 78.7809 49.7177 78.7809H36.2922C34.0124 78.7809 32.4926 77.25 32.4926 75.3363C32.4926 73.8054 32.9992 72.7848 34.5191 70.616L44.0182 56.4549H36.4189C34.3924 56.4549 32.9992 55.1791 32.9992 53.1379C32.9992 51.2242 34.3924 49.8209 36.4189 49.8209H49.3378C51.6176 49.8209 53.1374 51.2242 53.1374 53.2654C53.1374 54.6688 52.7575 55.6894 51.2376 57.7307L41.6118 72.1469H49.7177Z" fill="#AFAFAF"/><path opacity="0.3" d="M71.7558 88.6044C73.529 88.6044 74.7955 89.7526 74.7955 91.5386C74.7955 93.1971 73.6556 94.3453 71.7558 94.3453H62.13C60.2301 94.3453 58.9636 93.0696 58.9636 91.2835C58.9636 90.1353 59.3435 89.2422 60.4834 87.5837L66.8162 78.143H62.2566C60.4834 78.143 59.2169 76.9948 59.2169 75.3363C59.2169 73.6778 60.4834 72.402 62.2566 72.402H71.6291C73.529 72.402 74.7955 73.6778 74.7955 75.4639C74.7955 76.6121 74.4156 77.3776 73.4023 79.0361L66.9429 88.6044H71.7558Z" fill="#AFAFAF"/></svg>