<svg width="200" height="200" viewBox="0 0 200 200" fill="none" xmlns="http://www.w3.org/2000/svg"><path fill-rule="evenodd" clip-rule="evenodd" d="M114.95 182.333C114.95 178.682 111.99 175.722 108.339 175.722H98.0754C94.4242 175.722 91.4644 178.682 91.4644 182.333C91.4644 185.984 94.4242 188.944 98.0754 188.944H108.339C111.99 188.944 114.95 185.984 114.95 182.333Z" fill="#F49000"/><path fill-rule="evenodd" clip-rule="evenodd" d="M51.7268 156.604C54.4452 154.166 54.6731 149.987 52.2357 147.268L45.3839 139.626C42.9465 136.908 38.7668 136.68 36.0484 139.117C33.3299 141.555 33.102 145.734 35.5395 148.453L42.3912 156.095C44.8286 158.813 49.0083 159.041 51.7268 156.604Z" fill="#F49000"/><path d="M154.8 130.689C168.917 106.237 160.539 74.9708 136.087 60.8534C111.635 46.736 80.3684 55.1139 66.251 79.5659L60.7094 89.1643C46.592 113.616 54.9699 144.883 79.4219 159C103.874 173.118 135.141 164.74 149.258 140.288L154.8 130.689Z" fill="#58CC02"/><path d="M161.429 53.8338C161.429 41.8008 148.685 33.9084 137.592 38.5704C127.247 42.9177 116.174 46.8979 110.305 46.8979C104.437 46.8979 93.3633 42.9177 83.0188 38.5704C71.9256 33.9085 59.1816 41.8008 59.1816 53.8338V95.3464C59.1816 123.581 82.0704 146.47 110.305 146.47C138.54 146.47 161.429 123.581 161.429 95.3464V53.8338Z" fill="#58CC02"/><path d="M161.49 98.9566C161.49 98.9566 162.548 122.277 156.706 136.933C151.223 150.691 138.071 170.716 138.071 170.716C136.592 174.562 131.81 175.839 128.626 173.236C113.327 160.734 107.628 139.44 114.915 120.481C122.202 101.523 136.5 89.615 156.186 90.7053C160.283 90.9322 161.49 93.3913 161.49 98.9566Z" fill="#58CC02"/><path d="M89.9697 79.6786L16.5566 102.496C12.6216 103.719 11.0346 108.408 13.4224 111.756C24.8948 127.841 45.7696 134.923 65.1652 128.895C84.5608 122.867 97.6531 105.227 97.8555 85.5129C97.8976 81.4098 93.9046 78.4555 89.9697 79.6786Z" fill="#58CC02"/><path d="M115.233 122.774L102.366 122.769C101.677 122.769 101.188 123.408 101.401 124.03C102.425 127.022 105.403 129.089 108.802 129.091C112.202 129.092 115.178 127.027 116.2 124.036C116.412 123.413 115.923 122.774 115.233 122.774Z" fill="#8EE000"/><path d="M92.7783 122.774L79.9112 122.769C79.2215 122.769 78.7328 123.408 78.946 124.03C79.9703 127.022 82.9478 129.089 86.3473 129.091C89.7468 129.092 92.7226 127.027 93.7446 124.036C93.9573 123.413 93.468 122.774 92.7783 122.774Z" fill="#8EE000"/><path d="M104.006 133.635L91.1388 133.63C90.4491 133.63 89.9603 134.268 90.1735 134.891C91.1978 137.883 94.1754 139.95 97.5748 139.951C100.974 139.952 103.95 137.888 104.972 134.896C105.185 134.274 104.696 133.635 104.006 133.635Z" fill="#8EE000"/><path fill-rule="evenodd" clip-rule="evenodd" d="M107.675 61.1741C102.061 66.881 92.1624 66.881 85.9096 61.1741C79.6569 55.4671 86.8494 94.41 86.8494 94.3099C86.8494 94.2621 90.1915 94.2484 96.8756 94.2687C98.6674 94.2742 101.896 94.2879 106.56 94.3099C111.046 68.4147 111.418 57.3694 107.675 61.1741Z" fill="#89E219"/><path d="M72.6124 46.4728L87.7603 63.3369C88.5723 64.2408 88.2698 65.6743 87.1631 66.1679C81.8456 68.5392 75.5009 67.2014 71.4989 62.746C67.4968 58.2905 66.8328 51.8255 69.7413 46.7722C70.3467 45.7205 71.8004 45.5688 72.6124 46.4728Z" fill="#8EE000"/><path d="M63.7906 50.4953L78.9385 67.3595C79.7505 68.2634 79.4481 69.6969 78.3413 70.1904C73.0238 72.5618 66.6792 71.224 62.6771 66.7686C58.6751 62.3131 58.011 55.8481 60.9195 50.7948C61.5249 49.7431 62.9787 49.5914 63.7906 50.4953Z" fill="#8EE000"/><path d="M120.754 46.4274L106.073 62.9331C105.286 63.8179 105.591 65.2071 106.675 65.6767C111.885 67.9333 118.072 66.5794 121.951 62.2186C125.83 57.8578 126.435 51.5748 123.56 46.6933C122.962 45.6774 121.541 45.5427 120.754 46.4274Z" fill="#89E219"/><path d="M129.74 50.5106L115.929 66.038C115.188 66.8703 115.475 68.1772 116.495 68.619C121.396 70.7418 127.217 69.4681 130.866 65.3658C134.515 61.2635 135.084 55.3529 132.379 50.7608C131.817 49.805 130.48 49.6784 129.74 50.5106Z" fill="#89E219"/><path d="M142.703 75.7291C142.703 64.4023 133.521 55.2202 122.194 55.2202C110.867 55.2202 101.685 64.4024 101.685 75.7291V85.8349C101.685 97.1617 110.867 106.344 122.194 106.344C133.521 106.344 142.703 97.1617 142.703 85.8349V75.7291Z" fill="#89E219"/><path d="M135.867 76.6208C135.867 68.7413 129.479 62.3538 121.6 62.3538C113.72 62.3538 107.333 68.7413 107.333 76.6208V84.646C107.333 92.5255 113.72 98.9131 121.6 98.9131C129.479 98.9131 135.867 92.5255 135.867 84.646V76.6208Z" fill="white"/><path d="M59.1816 64.2852C61.6969 58.929 67.1397 55.2202 73.4487 55.2202C82.1489 55.2202 89.2019 62.2732 89.2019 70.9734V90.5906C89.2019 99.2909 82.1489 106.344 73.4487 106.344C67.1397 106.344 61.6969 102.635 59.1816 97.2788V64.2852Z" fill="#89E219"/><path d="M87.121 74.3916C87.121 67.7433 81.7315 62.3538 75.0832 62.3538C68.4349 62.3538 63.0454 67.7433 63.0454 74.3916V86.8752C63.0454 93.5235 68.4349 98.9131 75.0832 98.9131C81.7315 98.9131 87.121 93.5235 87.121 86.8752V74.3916Z" fill="white"/><path d="M107.217 74.3379V77.6357C107.217 80.0981 109.213 82.0942 111.675 82.0942C114.138 82.0942 116.134 80.0981 116.134 77.6357V71.6911C116.134 69.2288 114.138 67.2327 111.675 67.2327C111.232 67.2327 110.804 67.2973 110.4 67.4177C108.766 69.3516 107.637 71.7262 107.217 74.3379Z" fill="#4B4B4B"/><path d="M103.171 93.1174C103.171 89.2597 100.044 86.1324 96.1866 86.1324C92.3289 86.1324 89.2017 89.2597 89.2017 93.1174V95.4952C89.2017 99.3529 92.3289 102.48 96.1866 102.48C100.044 102.48 103.171 99.3529 103.171 95.4952V93.1174Z" fill="#F49000"/><path d="M86.0679 94.1188C86.0211 94.3259 86.0968 94.5404 86.2574 94.6791L90.126 98.0217C90.126 98.0217 95.0071 95.6948 98.1347 95.3466C100.432 95.0908 103.675 95.6919 105.236 96.029C105.661 96.1209 106.047 95.7485 105.932 95.3288C104.707 90.8383 100.756 86.1324 96.0706 86.1324C91.1866 86.1324 87.1001 89.5468 86.0679 94.1188Z" fill="#FFC200"/><path fill-rule="evenodd" clip-rule="evenodd" d="M97.2251 90.4658C97.2302 90.4678 97.2323 90.4687 97.2323 90.4687C97.9858 90.7942 98.8605 90.4473 99.186 89.6938C99.5115 88.9404 99.1646 88.0657 98.4111 87.7401C97.8395 87.4932 97.009 87.3558 96.2081 87.3269C95.3808 87.2971 94.3771 87.3748 93.4555 87.7057C92.683 87.9831 92.2816 88.8342 92.559 89.6067C92.8364 90.3792 93.6875 90.7805 94.46 90.5031C94.9095 90.3417 95.5054 90.2758 96.1011 90.2973C96.3896 90.3077 96.6524 90.3377 96.8651 90.3763C96.971 90.3955 97.0581 90.4157 97.1252 90.4342C97.1585 90.4434 97.1844 90.4515 97.2035 90.4581C97.213 90.4613 97.2201 90.4639 97.2251 90.4658Z" fill="#FFDE00"/><path d="M87.0056 81.0538C87.0056 78.5094 84.943 76.4468 82.3986 76.4468C79.8542 76.4468 77.7915 78.5094 77.7915 81.0538V86.9984C77.7915 89.5429 79.8542 91.6055 82.3986 91.6055C84.943 91.6055 87.0056 89.5429 87.0056 86.9984V81.0538Z" fill="#4B4B4B"/><path d="M61.2623 59.0845H59.1816V64.1374H61.2623V59.0845Z" fill="#89E219"/><path d="M45.5749 34.3007C45.4845 32.5755 43.2392 31.9738 42.2983 33.4227L40.1445 36.7392L36.3249 35.7157C34.6561 35.2686 33.3901 37.218 34.4774 38.5606L36.9659 41.6338L34.8122 44.9502C33.8713 46.3991 35.3341 48.2056 36.947 47.5865L40.6387 46.1693L43.1273 49.2425C44.2146 50.5851 46.3846 49.7521 46.2942 48.0268L46.0873 44.0778L49.779 42.6607C51.3919 42.0416 51.2702 39.7203 49.6015 39.2732L45.7818 38.2497L45.5749 34.3007Z" fill="#FFC200"/><path d="M179.346 87.2022C179.437 85.4769 181.682 84.8753 182.623 86.3242L183.812 88.1551L185.92 87.5901C187.589 87.1429 188.855 89.0924 187.768 90.435L186.394 92.1316L187.583 93.9624C188.524 95.4113 187.061 97.2178 185.448 96.5987L183.41 95.8163L182.036 97.5129C180.949 98.8555 178.779 98.0225 178.869 96.2972L178.984 94.1172L176.946 93.3348C175.333 92.7157 175.454 90.3944 177.123 89.9473L179.232 89.3823L179.346 87.2022Z" fill="#FFC200"/><path d="M127.627 12.8946C127.718 11.1693 129.963 10.5677 130.904 12.0166L132.093 13.8475L134.202 13.2825C135.87 12.8353 137.136 14.7848 136.049 16.1274L134.675 17.824L135.864 19.6548C136.805 21.1037 135.342 22.9102 133.73 22.2911L131.691 21.5087L130.318 23.2053C129.23 24.5479 127.06 23.7149 127.151 21.9896L127.265 19.8095L125.227 19.0272C123.614 18.4081 123.736 16.0868 125.404 15.6397L127.513 15.0746L127.627 12.8946Z" fill="#FFC200"/></svg>