<svg width="70" height="54" viewBox="0 0 70 54" fill="none" xmlns="http://www.w3.org/2000/svg"><g id="Course=Mexico" clip-path="url(#clip0_10285_14588)"><g id="FlagContainer"><path id="Rectangle 4" d="M12.5627 0H57.4366C61.805 0 63.3891 0.454846 64.9862 1.30895C66.5832 2.16305 67.8366 3.41642 68.6907 5.01346C69.5448 6.61049 69.9996 8.1946 69.9996 12.563V41.437C69.9996 45.8054 69.5448 47.3895 68.6907 48.9865C67.8366 50.5836 66.5832 51.8369 64.9862 52.6911C63.3891 53.5452 61.805 54 57.4366 54H12.5627C8.19423 54 6.61013 53.5452 5.01309 52.6911C3.41605 51.8369 2.16269 50.5836 1.30858 48.9865C0.454479 47.3895 -0.000366211 45.8054 -0.000366211 41.437V12.563C-0.000366211 8.1946 0.454479 6.61049 1.30858 5.01346C2.16269 3.41642 3.41605 2.16305 5.01309 1.30895C6.61013 0.454846 8.19423 0 12.5627 0Z" fill="#EEEEEE"/><path id="Rectangle" d="M27.9351 25.3548C27.9351 21.4354 31.1125 18.2581 35.0319 18.2581C38.9513 18.2581 42.1287 21.4354 42.1287 25.3548C42.1287 29.2743 38.9513 32.4516 35.0319 32.4516C31.1125 32.4516 27.9351 29.2743 27.9351 25.3548Z" fill="#9E5832"/><path id="Path" d="M23.6246 0V54H12.5627C8.19423 54 6.61013 53.5452 5.01309 52.691C3.41605 51.8369 2.16269 50.5836 1.30858 48.9865C0.454479 47.3895 -0.000366211 45.8054 -0.000366211 41.437V12.563C-0.000366211 8.1946 0.454479 6.61049 1.30858 5.01346C2.16269 3.41642 3.41605 2.16305 5.01309 1.30895C6.61013 0.454845 8.19423 0 12.5627 0H23.6246Z" fill="#47A600"/><path id="Path_2" d="M46.3746 0H57.4366C61.805 0 63.3891 0.454845 64.9862 1.30895C66.5832 2.16305 67.8366 3.41642 68.6907 5.01346C69.5448 6.61049 69.9996 8.1946 69.9996 12.563V41.437C69.9996 45.8054 69.5448 47.3895 68.6907 48.9865C67.8366 50.5836 66.5832 51.8369 64.9862 52.691C63.3891 53.5452 61.805 54 57.4366 54H46.3746V0Z" fill="#FF4B4B"/><path id="Path_3" d="M41.3231 31.3635C41.9597 30.7405 42.9808 30.7514 43.6039 31.388C44.227 32.0246 44.216 33.0458 43.5794 33.6689C41.0897 36.1058 38.2166 37.3549 35.0319 37.3549C31.8472 37.3549 28.9741 36.1058 26.4844 33.6689C25.8477 33.0458 25.8368 32.0246 26.4599 31.388C27.0767 30.7578 28.0837 30.7408 28.7215 31.345L28.7407 31.3635C30.6454 33.2278 32.7186 34.1291 35.0319 34.1291C37.3221 34.1291 39.3769 33.2457 41.2659 31.4192L41.3231 31.3635Z" fill="#47A600"/></g></g><defs><clipPath id="clip0_10285_14588"><rect width="70" height="54" fill="white" transform="translate(-0.000366211)"/></clipPath></defs></svg>