<svg width="70" height="54" viewBox="0 0 70 54" fill="none" xmlns="http://www.w3.org/2000/svg"><path fill-rule="evenodd" clip-rule="evenodd" d="M12.563 0H57.4367C61.8051 0 63.3892 0.454843 64.9862 1.30894C66.5833 2.16304 67.8366 3.4164 68.6907 5.01343C69.5448 6.61046 69.9997 8.19456 69.9997 12.563V41.4368C69.9997 45.8052 69.5448 47.3893 68.6907 48.9863C67.8366 50.5833 66.5833 51.8367 64.9862 52.6908C63.3892 53.5449 61.8051 53.9997 57.4367 53.9997H12.563C8.19456 53.9997 6.61046 53.5449 5.01343 52.6908C3.4164 51.8367 2.16304 50.5833 1.30894 48.9863C0.454843 47.3893 0 45.8052 0 41.4368L0 12.563C0 8.19456 0.454843 6.61046 1.30894 5.01343C2.16304 3.4164 3.4164 2.16304 5.01343 1.30894C6.61046 0.454843 8.19456 0 12.563 0Z" fill="#1899D6"/><path fill-rule="evenodd" clip-rule="evenodd" d="M7.90838 0.304688L35.0322 20.0109L62.1437 0.314064C63.3436 0.534542 64.1636 0.86877 64.9869 1.30913C66.5841 2.16324 67.8374 3.41661 68.6915 5.01366C69.2196 6.00113 69.5951 6.98365 69.8048 8.62246L44.5815 26.9488L69.8165 45.2842C69.6093 46.9797 69.2296 47.9808 68.6915 48.987C67.8374 50.5841 66.5841 51.8375 64.9869 52.6916C64.1896 53.118 63.3955 53.4449 62.2565 53.6654L35.0322 33.8868L7.79556 53.6752C6.62883 53.4547 5.82282 53.1244 5.01349 52.6916C3.41644 51.8375 2.16307 50.5841 1.30896 48.987C0.775354 47.9893 0.397586 46.9966 0.189209 45.3268L25.483 26.9488L0.201138 8.58043C0.411842 6.96679 0.785383 5.99266 1.30896 5.01366C2.16307 3.41661 3.41644 2.16324 5.01349 1.30913C5.84865 0.86248 6.68027 0.525017 7.90838 0.304688Z" fill="#EEEEEE"/><path fill-rule="evenodd" clip-rule="evenodd" d="M3.46592 2.34961L33.0644 23.855L35.0216 22.433L35.0282 22.4241L35.031 22.4263L35.0339 22.4241L35.0404 22.433L36.9976 23.855L66.5632 2.37339C67.428 3.10139 68.1424 3.98633 68.6916 5.0134C68.9832 5.55854 69.2282 6.10218 69.4245 6.75556L41.4429 27.0848L69.3815 47.3837C69.1928 47.9761 68.9622 48.4808 68.6916 48.9868C68.1198 50.0561 67.3689 50.9714 66.4557 51.7159L35.0311 28.8857L3.57475 51.74C2.64813 50.9912 1.88717 50.0677 1.3091 48.9868C1.04415 48.4914 0.817624 47.9972 0.631174 47.4208L28.6191 27.0848L0.587402 6.71868C0.781795 6.08165 1.02306 5.54825 1.3091 5.0134C1.86438 3.97512 2.58841 3.0821 3.46592 2.34961Z" fill="#EA2B2B"/><path fill-rule="evenodd" clip-rule="evenodd" d="M41.9034 0L41.9034 19.7743L69.9997 19.7739V33.5801L41.9034 33.5809L41.9034 54H28.0963L28.0969 33.5808L0 33.5801V19.7739L28.0969 19.7743L28.0963 0H41.9034Z" fill="#EEEEEE"/><path fill-rule="evenodd" clip-rule="evenodd" d="M38.5799 0L38.5809 23.0969L69.9997 23.0964V30.2576L38.5809 30.2583L38.5799 54H31.4188L31.4196 30.2582L0 30.2576V23.0964L31.4196 23.0969L31.4188 0H38.5799Z" fill="#EA2B2B"/></svg>