<svg width="1085" height="837" viewBox="0 0 1085 837" fill="none" xmlns="http://www.w3.org/2000/svg"><path d="M0 419H1085V624.5H0V419Z" fill="#1254A9"/><g clip-path="url(#clip0_148_1260)"><path d="M1085 624.5V642.273C1085 709.984 1077.95 734.537 1064.71 759.291C1051.47 784.046 1032.05 803.473 1007.29 816.711C982.537 829.95 957.984 837 890.273 837H194.727C127.016 837 102.463 829.95 77.7086 816.711C52.9545 803.473 33.5274 784.046 20.2887 759.291C7.05011 734.537 0 709.984 0 642.273V624.5H1085Z" fill="#FF4B4B"/><path d="M194.727 0H890.273C957.984 0 982.537 7.05011 1007.29 20.2887C1032.05 33.5274 1051.47 52.9545 1064.71 77.7086C1077.95 102.463 1085 127.016 1085 194.727V422H0V194.727C0 127.016 7.05011 102.463 20.2887 77.7086C33.5274 52.9545 52.9545 33.5274 77.7086 20.2887C102.463 7.05011 127.016 0 194.727 0Z" fill="#FFC800"/></g><defs><clipPath id="clip0_148_1260"><rect width="1085" height="837" fill="white"/></clipPath></defs></svg>