<svg width="54" height="55" viewBox="0 0 54 55" fill="none" xmlns="http://www.w3.org/2000/svg"><rect y="0.16748" width="54" height="54" rx="10.2857" fill="#1CB0F6"/><path d="M32.9692 15.9626H41.862" stroke="white" stroke-width="5.44986" stroke-linecap="round"/><path d="M12.3977 32.6772H21.2905" stroke="white" stroke-width="4.88571" stroke-linecap="round"/><path d="M12.3977 40.3914H21.2905" stroke="white" stroke-width="4.88571" stroke-linecap="round"/><path d="M9.70104 14.8227L9.70029 14.8234C9.25025 15.2359 9.07137 15.7608 9.07137 16.3936C9.07137 17.0143 9.24377 17.5784 9.70044 17.9642C10.1153 18.3743 10.6688 18.5452 11.3521 18.5452H14.5895V21.7826C14.5895 22.4681 14.7616 23.0553 15.2069 23.5029C15.6215 23.9527 16.1793 24.1279 16.8057 24.1279C17.4411 24.1279 17.9597 23.9478 18.4007 23.5067L18.4009 23.5069L18.4082 23.499C18.811 23.0595 19.0219 22.4805 19.0219 21.7826V18.5452H22.2593C22.9195 18.5452 23.4681 18.3697 23.9107 17.9641C24.327 17.5854 24.54 17.0293 24.54 16.3936C24.54 15.7503 24.3226 15.2345 23.9189 14.8308L23.9109 14.8229L23.9023 14.8157C23.4702 14.4556 22.9299 14.2419 22.2593 14.2419H19.0219V11.0045C19.0219 10.3028 18.8087 9.7574 18.4082 9.32045L18.4083 9.32029L18.4007 9.31267C17.9669 8.87889 17.4521 8.65926 16.8057 8.65926C16.1677 8.65926 15.615 8.87351 15.2068 9.31648C14.7637 9.76178 14.5895 10.315 14.5895 11.0045V14.2419H11.3521C10.6534 14.2419 10.1074 14.4533 9.70104 14.8227Z" fill="white" stroke="white" stroke-width="0.495441"/><path d="M43.1745 39.7623L43.1746 39.7622L43.1686 39.7562L40.4718 37.0593L43.1363 34.3947L43.1422 34.3889L43.1476 34.3827C43.6133 33.8505 43.9188 33.3092 43.9188 32.7352C43.9188 32.1488 43.6962 31.6717 43.3381 31.2777C42.9651 30.8675 42.445 30.6481 41.864 30.6481C41.2324 30.6481 40.6565 30.9462 40.1721 31.4306L37.5076 34.0951L34.8107 31.3983L34.8108 31.3982L34.8046 31.3924C34.2941 30.9159 33.7203 30.6158 33.1189 30.6158C32.508 30.6158 31.987 30.8335 31.6125 31.2455C31.2465 31.6481 31.064 32.1279 31.064 32.7029C31.064 33.2963 31.3249 33.8744 31.8495 34.3654L34.5434 37.0593L31.8788 39.7239L31.8787 39.7238L31.8733 39.7296C31.3621 40.2749 31.0963 40.8488 31.0963 41.3835C31.0963 41.9541 31.276 42.4675 31.6448 42.8732C32.0263 43.2928 32.5525 43.4706 33.1511 43.4706C33.7463 43.4706 34.3227 43.2084 34.843 42.6881L37.5076 40.0235L40.2015 42.7174C40.694 43.2437 41.2727 43.5028 41.8963 43.5028C42.4651 43.5028 42.9902 43.3236 43.3703 42.9054C43.7317 42.508 43.9511 41.9977 43.9511 41.4157C43.9511 40.8107 43.6473 40.2689 43.1745 39.7623ZM34.6001 37.1177C34.6001 37.1177 34.5997 37.1172 34.5991 37.1162L34.6001 37.1177ZM37.4492 39.9668C37.4492 39.9667 37.4497 39.967 37.4507 39.9678L37.4492 39.9668Z" fill="white" stroke="white" stroke-width="0.495441"/></svg>