<svg width="54" height="55" viewBox="0 0 54 55" fill="none" xmlns="http://www.w3.org/2000/svg"><rect y="0.16748" width="54" height="54" rx="10.125" fill="#CE82FF"/><path fill-rule="evenodd" clip-rule="evenodd" d="M36.2915 27.8635L35.9986 20.2889L23.4139 21.1178L23.8974 33.6191L23.861 33.6215C23.8934 33.836 23.9143 34.0547 23.9229 34.2771C24.0493 37.5475 21.483 40.3745 18.1907 40.5914C14.8985 40.8082 12.127 38.3328 12.0005 35.0623C11.874 31.7919 14.4404 28.9649 17.7327 28.748C18.4294 28.7021 19.1028 28.7768 19.7328 28.9541L19.1854 14.801C19.1573 14.0736 19.7287 13.4448 20.4617 13.3966L38.3401 12.219C39.0731 12.1707 39.6902 12.7212 39.7183 13.4486L40.4198 32.5309C40.4522 32.7453 40.473 32.964 40.4816 33.1864C40.6081 36.4569 38.0418 39.2839 34.7495 39.5007C31.4572 39.7176 28.6858 37.2421 28.5593 33.9717C28.4328 30.7012 30.9992 27.8742 34.2915 27.6574C34.9108 27.6166 35.5117 27.6711 36.08 27.8082L36.2915 27.8635Z" fill="white"/></svg>