<svg width="24" height="24" viewBox="0 0 24 24" fill="none" xmlns="http://www.w3.org/2000/svg"><path fill-rule="evenodd" clip-rule="evenodd" d="M10.5352 1.69306C11.3277 0.825975 12.6933 0.825374 13.4866 1.69176L17.57 6.15158C17.943 6.55892 17.9151 7.19147 17.5078 7.56443C17.1004 7.93738 16.4679 7.90952 16.0949 7.50218L12.9678 4.08679V15.5586C12.9678 16.1108 12.5201 16.5586 11.9678 16.5586C11.4155 16.5586 10.9678 16.1108 10.9678 15.5586V4.18429L7.97197 7.46204C7.59937 7.8697 6.96684 7.89813 6.55918 7.52553C6.15151 7.15293 6.12309 6.5204 6.49569 6.11274L10.5352 1.69306ZM4.96777 11.1595C4.96777 10.6072 4.52006 10.1595 3.96777 10.1595C3.41549 10.1595 2.96777 10.6072 2.96777 11.1595V19.9576C2.96777 21.6145 4.31092 22.9576 5.96777 22.9576H18.032C19.6889 22.9576 21.032 21.6145 21.032 19.9576V11.1595C21.032 10.6072 20.5843 10.1595 20.032 10.1595C19.4797 10.1595 19.032 10.6072 19.032 11.1595V19.9576C19.032 20.5099 18.5843 20.9576 18.032 20.9576H5.96777C5.41549 20.9576 4.96777 20.5099 4.96777 19.9576V11.1595Z" fill="white"/></svg>