<svg width="19" height="19" viewBox="0 0 19 19" fill="none" xmlns="http://www.w3.org/2000/svg"><path d="M1 9.5C1 5.10663 4.66513 1.5 9.24268 1.5C13.8202 1.5 17.4854 5.10664 17.4854 9.5C17.4854 13.8934 13.8202 17.5 9.24268 17.5C4.66512 17.5 1 13.8934 1 9.5Z" fill="#FFF5D3" stroke="#FF9600" stroke-width="2"/><path fill-rule="evenodd" clip-rule="evenodd" d="M9.24304 7.25C10.5192 7.25 11.5537 8.25736 11.5537 9.5C11.5537 10.7426 10.5192 11.75 9.24304 11.75C7.96689 11.75 6.93237 10.7426 6.93237 9.5C6.93237 8.25736 7.9669 7.25 9.24304 7.25Z" fill="#FF9600"/><path fill-rule="evenodd" clip-rule="evenodd" d="M5.53717 7.3557C5.10185 6.92449 5.10402 6.23245 5.54203 5.80383C5.98692 5.36849 6.71124 5.37064 7.15339 5.80862L9.18262 7.81868C9.61794 8.24989 9.61577 8.94193 9.17776 9.37055C8.73287 9.80589 8.00855 9.80374 7.5664 9.36576L5.53717 7.3557Z" fill="#FF9600"/></svg>