<svg width="16" height="16" viewBox="0 0 16 16" fill="none" xmlns="http://www.w3.org/2000/svg"><path d="M1 8C1 4.13401 4.13401 0.999999 8 0.999999C11.866 1 15 4.13401 15 8C15 11.866 11.866 15 8 15C4.13401 15 1 11.866 1 8Z" fill="#FFDFE0" stroke="#FF4B4B" stroke-width="2"/><path fill-rule="evenodd" clip-rule="evenodd" d="M8 6C9.10457 6 10 6.89543 10 8C10 9.10457 9.10457 10 8 10C6.89543 10 6 9.10457 6 8C6 6.89543 6.89543 6 8 6Z" fill="#FF4B4B"/><path fill-rule="evenodd" clip-rule="evenodd" d="M4.79253 6.09493C4.41574 5.71164 4.41761 5.09649 4.79674 4.7155C5.18181 4.32853 5.80874 4.33044 6.19145 4.71975L7.94785 6.50647C8.32464 6.88976 8.32276 7.50491 7.94364 7.88591C7.55856 8.27288 6.93163 8.27096 6.54892 7.88165L4.79253 6.09493Z" fill="#FF4B4B"/></svg>